<svg width="983" height="901" viewBox="0 0 983 901" fill="none" xmlns="http://www.w3.org/2000/svg">
<path d="M419.269 151.388C452.959 124.085 499.655 119.422 538.079 139.522L546.266 143.805C563.728 152.94 583.143 157.712 602.851 157.712L613.029 157.712C655.328 157.712 693.617 182.741 710.588 221.486C719.845 242.619 735.714 260.175 755.807 271.513L763.774 276.008C803.448 298.393 824.975 343.126 817.716 388.098L817.3 390.674C813.459 414.477 818.2 438.871 830.677 459.503C853.75 497.653 849.281 546.384 819.654 579.702L812.084 588.215C797.289 604.854 789.116 626.344 789.116 648.609C789.116 691.486 759.149 728.53 717.219 737.489L713.223 738.343C686.865 743.974 664.084 760.447 650.466 783.706C628.972 820.421 585.87 838.644 544.565 828.453L533.69 825.77C511.971 820.412 489.139 821.739 468.187 829.577L467.184 829.952C426.248 845.267 380.163 835.94 348.403 805.913L328.332 786.937C315.253 774.572 299.079 765.966 281.516 762.029C241.537 753.066 211.072 720.619 204.643 680.155L203.69 674.157C200.213 652.271 190.143 631.965 174.824 615.951L171.894 612.889C138.979 578.479 128.986 528.113 146.273 483.743L149.01 476.717C157.057 456.063 158.824 433.493 154.09 411.838C144.933 369.949 160.379 326.496 193.922 299.785L199.997 294.947C214.388 283.487 226.072 268.992 234.215 252.495L239.117 242.565C259.349 201.58 301.093 175.634 346.799 175.634L350.839 175.634C375.754 175.634 399.912 167.074 419.269 151.388Z" fill="#592B00"/>
<circle cx="491.35" cy="478.045" r="41" fill="#2E1600"/>
<path d="M491 519L469 128.724L479 127.5L489.5 127L501.5 128L510 129.5L491 519Z" fill="#2E1600"/>
<path d="M468.451 510.136L743.5 263.5L754.5 270.5L765 276.5L775 283L782 289L468.451 510.136Z" fill="#2E1600"/>
<path d="M505.5 439.5L351.5 809L337.5 796L321.332 780.765L505.5 439.5Z" fill="#2E1600"/>
<path d="M472 442.5L704.5 741L721.5 736.5L730.5 734L739 730.5L746.5 726L472 442.5Z" fill="#2E1600"/>
<path d="M527 498L169.126 327.423L164 336.5L159.815 345.756L156 356L154 366L527 498Z" fill="#2E1600"/>
<path d="M359.732 606.497H324.961V591.127H359.732V583.316C359.732 576.093 361.16 569.29 364.016 562.907C366.871 556.524 371.323 550.98 377.37 546.277C383.417 541.574 390.976 537.878 400.047 535.191C409.286 532.503 420.204 531.159 432.802 531.159C450.776 531.159 467.742 534.099 483.7 539.978C499.658 545.689 514.356 552.828 527.794 561.395L520.991 575.001C508.728 567.442 495.374 560.975 480.928 555.6C466.65 550.057 451.112 547.285 434.314 547.285C423.9 547.285 415.081 548.293 407.858 550.309C400.803 552.324 395.091 555.096 390.724 558.623C386.357 561.983 383.165 565.847 381.149 570.214C379.301 574.581 378.378 579.117 378.378 583.82V591.127H413.149V606.497H378.378V767H359.732V606.497ZM516.851 722.654H515.843C510.972 727.021 505.009 730.717 497.954 733.74C491.066 736.596 483.004 738.024 473.765 738.024C466.206 738.024 459.235 736.932 452.852 734.748C446.468 732.397 441.009 729.121 436.474 724.922C431.938 720.554 428.327 715.347 425.639 709.3C423.119 703.084 421.86 696.197 421.86 688.638C421.86 681.079 423.119 674.276 425.639 668.229C428.327 662.014 431.938 656.807 436.474 652.607C441.009 648.24 446.468 644.964 452.852 642.78C459.235 640.429 466.206 639.253 473.765 639.253C483.004 639.253 491.066 640.765 497.954 643.788C505.009 646.644 510.972 650.255 515.843 654.623H516.851V606.497H402.962V591.127H570.268V606.497H535.497V767H516.851V722.654ZM475.781 721.898C481.66 721.898 487.119 721.226 492.158 719.882C497.198 718.37 501.565 716.439 505.261 714.087C508.956 711.567 511.812 708.796 513.827 705.772C516.011 702.748 517.103 699.641 517.103 696.449V680.827C517.103 677.636 516.011 674.528 513.827 671.505C511.812 668.481 508.956 665.793 505.261 663.442C501.565 661.09 497.198 659.158 492.158 657.646C487.119 656.135 481.66 655.379 475.781 655.379C470.237 655.379 465.366 656.219 461.166 657.898C456.967 659.41 453.355 661.594 450.332 664.45C447.476 667.137 445.293 670.329 443.781 674.024C442.437 677.552 441.765 681.331 441.765 685.363V691.914C441.765 695.945 442.437 699.809 443.781 703.504C445.293 707.032 447.476 710.223 450.332 713.079C453.355 715.767 456.967 717.95 461.166 719.63C465.366 721.142 470.237 721.898 475.781 721.898Z" fill="white"/>
<path d="M497.053 495.186C490.467 495.186 485.441 491.27 481.975 483.438C478.509 475.215 476.776 464.054 476.776 449.957C476.776 427.636 480.762 413.539 488.734 407.665V250.831H450V215H625.473V250.831H589.599V625H570.362V441.734H507.971V490.487C505.198 493.62 501.559 495.186 497.053 495.186ZM507.971 250.831V404.728H570.362V250.831H507.971Z" fill="white"/>
<path d="M650.888 250.831H615.014V215H706V250.831H670.125V625H650.888V250.831Z" fill="white"/>
<path d="M401.193 300.124H465.849V318.728H423.762V513H401.193V300.124ZM248.703 423.031V405.037H287.131C305.43 405.037 318.747 401.682 327.083 394.973C335.419 388.263 339.587 377.792 339.587 363.56V355.021C339.587 344.041 336.537 335.604 330.438 329.707C324.542 323.811 316.714 320.863 306.954 320.863C298.008 320.863 290.384 323.303 284.081 328.182C277.981 333.062 273.203 341.093 269.747 352.276L249.923 344.956C253.99 331.537 260.801 320.965 270.357 313.238C280.116 305.309 292.112 301.344 306.344 301.344C324.033 301.344 337.757 306.63 347.517 317.203C357.276 327.776 362.156 342.008 362.156 359.9C362.156 371.489 360.428 381.35 356.971 389.483C353.515 397.616 348.635 404.224 342.332 409.307C336.029 414.187 328.608 417.846 320.069 420.286C311.529 422.523 302.075 423.641 291.705 423.641H277.676L277.066 424.251L296.89 444.685L350.872 498.666L336.232 513L248.703 423.031Z" fill="white"/>
<path d="M257.239 809.422C261.236 812.358 264.093 815.615 265.809 819.193C267.491 822.818 268.335 826.696 268.341 830.828L261.272 831.283C261.225 827.7 260.593 824.52 259.374 821.743C258.122 819.013 256.061 816.594 253.192 814.487C249.665 811.896 246.363 810.773 243.285 811.119C240.16 811.43 237.561 812.996 235.489 815.818C233.761 818.169 233.137 820.498 233.615 822.804C234.093 825.11 235.678 827.832 238.37 830.968L241.717 834.839C245.472 839.19 247.789 843.281 248.667 847.112C249.464 850.956 248.463 854.782 245.665 858.591C244.076 860.755 242.26 862.389 240.216 863.495C238.173 864.601 236.032 865.2 233.792 865.292C231.505 865.35 229.166 864.935 226.777 864.049C224.305 863.175 221.87 861.856 219.472 860.095C215.757 857.365 213.083 854.352 211.451 851.053C209.773 847.72 208.984 844.063 209.084 840.082L215.912 840.102C215.894 842.985 216.452 845.676 217.585 848.174C218.719 850.672 220.72 852.974 223.589 855.082C226.74 857.396 229.733 858.545 232.569 858.529C235.323 858.525 237.685 857.183 239.654 854.502C241.382 852.151 241.942 849.811 241.335 847.482C240.647 845.167 239.01 842.516 236.424 839.531L233.077 835.66C229.028 831.02 226.733 826.8 226.194 823.001C225.654 819.201 226.732 815.467 229.426 811.799C231.085 809.542 232.987 807.79 235.134 806.543C237.234 805.261 239.479 804.521 241.87 804.322C244.26 804.124 246.773 804.449 249.407 805.298C251.995 806.113 254.605 807.487 257.239 809.422Z" fill="#592B00"/>
<path d="M176.455 775.313L197.955 797.504L217.821 778.258L222.937 783.538L179.057 826.051L173.94 820.77L193.303 802.011L171.803 779.82L152.441 798.579L147.325 793.298L191.205 750.786L196.321 756.066L176.455 775.313Z" fill="#592B00"/>
<path d="M152.665 697.81L141.167 712.991L155.003 733.432L173.369 728.399L177.54 734.561L114.972 751.12L109.722 743.364L148.347 691.431L152.665 697.81ZM117.977 743.379L118.222 743.741L148.657 735.613L136.833 718.144L117.977 743.379Z" fill="#592B00"/>
<path d="M72.4957 651.009L72.6697 651.41L84.1199 652.076L114.348 654.906L95.746 678.9L88.4033 687.711L88.5773 688.113L135.801 667.645L138.655 674.231L82.5973 698.527L78.6988 689.532L101.934 660.382L101.76 659.98L64.5664 656.926L60.8071 648.252L116.865 623.956L119.719 630.541L72.4957 651.009Z" fill="#592B00"/>
<path d="M100.511 560.565L84.2811 570.528L89.7387 594.6L108.678 596.589L110.324 603.845L46.0171 596.525L43.9463 587.391L98.8082 553.053L100.511 560.565ZM51.6304 590.406L51.7272 590.832L83.0347 594.325L78.3705 573.753L51.6304 590.406Z" fill="#592B00"/>
<path d="M95.7431 519.594L35.9715 543.521L35.5001 535.658L65.6532 523.766L88.1418 515.666L88.1156 515.229L64.8099 509.699L33.4467 501.407L32.991 493.806L95.2088 510.682L95.7431 519.594Z" fill="#592B00"/>
<path d="M94.9142 472.681L88.8056 472.204L89.4734 463.652L40.7796 459.85L40.1118 468.402L34.0033 467.925L35.9111 443.49L42.0197 443.967L41.3519 452.519L90.0458 456.321L90.7135 447.77L96.8221 448.246L94.9142 472.681Z" fill="#592B00"/>
<path d="M109.261 353.668L109.183 353.919C111.685 355.496 113.412 357.992 114.362 361.407C115.273 364.749 115.033 368.648 113.64 373.104C112.525 376.668 110.858 379.754 108.636 382.361C106.377 384.895 103.663 386.828 100.495 388.161C97.2715 389.477 93.6023 390.164 89.4877 390.222C85.3347 390.208 80.8077 389.435 75.9065 387.902C71.061 386.388 66.9553 384.462 63.5893 382.126C60.1677 379.772 57.5433 377.118 55.716 374.162C53.8331 371.189 52.7021 367.962 52.3231 364.481C51.9441 361 52.3379 357.393 53.5045 353.662C55.1412 348.426 57.6777 344.42 61.1138 341.642C64.55 338.865 68.4856 337.13 72.9206 336.438L74.6272 343.299C71.0904 343.661 68.013 344.9 65.3949 347.016C62.7943 349.076 60.9194 351.945 59.7702 355.62C58.9693 358.182 58.7114 360.67 58.9965 363.082C59.226 365.477 59.9324 367.715 61.1157 369.797C62.3165 371.823 63.9558 373.62 66.0339 375.187C68.1119 376.753 70.599 377.989 73.4951 378.895L82.9355 381.846C85.8317 382.752 88.6078 383.161 91.2639 383.074C93.8643 382.97 96.2349 382.427 98.3759 381.446C100.534 380.409 102.435 378.924 104.078 376.993C105.666 375.043 106.895 372.676 107.766 369.892C108.393 367.887 108.734 365.915 108.79 363.976C108.808 361.964 108.496 360.124 107.856 358.456C107.233 356.733 106.264 355.238 104.948 353.971C103.577 352.686 101.805 351.704 99.6327 351.025L93.8682 349.223L89.8461 362.088L83.6639 360.156L89.8277 340.439L119.82 349.816L117.782 356.332L109.261 353.668Z" fill="#592B00"/>
<path d="M129.687 327.179L74.9813 299.975L78.2551 293.391L127.161 317.712L138.736 294.434L144.536 297.319L129.687 327.179Z" fill="#592B00"/>
<path d="M169.38 260.861C167.067 264.085 164.43 266.61 161.469 268.436C158.494 270.18 155.277 271.211 151.816 271.53C148.343 271.767 144.66 271.244 140.769 269.961C136.831 268.644 132.775 266.489 128.602 263.496C124.43 260.503 121.112 257.369 118.649 254.095C116.187 250.82 114.511 247.499 113.622 244.133C112.768 240.719 112.713 237.341 113.459 233.998C114.192 230.574 115.715 227.25 118.028 224.025C120.307 220.849 122.95 218.364 125.959 216.573C128.92 214.747 132.138 213.716 135.611 213.478C139.119 213.194 142.818 213.693 146.709 214.976C150.601 216.259 154.633 218.397 158.805 221.39C162.978 224.383 166.319 227.534 168.829 230.843C171.292 234.117 172.951 237.461 173.805 240.875C174.646 244.208 174.701 247.586 173.968 251.01C173.188 254.4 171.659 257.684 169.38 260.861ZM164.045 257.034C165.576 254.901 166.608 252.661 167.142 250.315C167.676 247.969 167.691 245.645 167.186 243.345C166.716 240.997 165.74 238.753 164.259 236.613C162.778 234.473 160.804 232.519 158.339 230.75L150.088 224.832C147.623 223.064 145.139 221.821 142.637 221.103C140.136 220.386 137.697 220.181 135.323 220.488C132.982 220.748 130.786 221.507 128.735 222.765C126.683 224.022 124.893 225.718 123.362 227.852C121.831 229.986 120.799 232.225 120.266 234.571C119.732 236.917 119.7 239.265 120.17 241.613C120.674 243.913 121.667 246.133 123.148 248.273C124.63 250.413 126.603 252.367 129.069 254.136L137.319 260.054C139.785 261.822 142.268 263.065 144.77 263.783C147.272 264.5 149.693 264.729 152.034 264.469C154.409 264.161 156.622 263.379 158.673 262.121C160.724 260.864 162.515 259.168 164.045 257.034Z" fill="#592B00"/>
<path d="M157.067 177.315L175.072 159.796C178.711 156.256 182.552 154.514 186.595 154.569C190.68 154.584 194.391 156.306 197.728 159.735C199.315 161.367 200.428 162.971 201.067 164.547C201.705 166.124 202.036 167.635 202.057 169.08C202.038 170.482 201.793 171.779 201.323 172.969C200.812 174.118 200.262 175.101 199.673 175.918L200.039 176.294C200.875 175.563 201.956 174.917 203.285 174.358C204.655 173.758 206.186 173.448 207.878 173.43C209.529 173.371 211.279 173.704 213.126 174.431C214.974 175.075 216.773 176.296 218.523 178.095C220.272 179.893 221.607 181.851 222.527 183.968C223.489 186.045 224.018 188.136 224.113 190.242C224.208 192.348 223.891 194.407 223.162 196.419C222.392 198.389 221.191 200.168 219.56 201.755L199.673 221.104L157.067 177.315ZM200.426 211.334L213.412 198.699C215.671 196.502 216.899 194.208 217.097 191.817C217.254 189.384 216.254 187.06 214.097 184.843L212.022 182.71C209.865 180.494 207.589 179.451 205.194 179.584C202.758 179.674 200.411 180.818 198.152 183.015L185.166 195.651L200.426 211.334ZM180.771 191.134L192.879 179.353C194.97 177.318 196.093 175.208 196.246 173.023C196.4 170.838 195.521 168.763 193.608 166.797L191.533 164.664C189.62 162.699 187.57 161.763 185.381 161.857C183.193 161.95 181.053 163.015 178.962 165.049L166.854 176.83L180.771 191.134Z" fill="#592B00"/>
<path d="M280.971 153.994L265.686 142.633L245.371 156.653L250.569 174.974L244.445 179.199L227.323 116.784L235.031 111.464L287.31 149.619L280.971 153.994ZM235.091 119.718L234.73 119.967L243.133 150.328L260.495 138.346L235.091 119.718Z" fill="#592B00"/>
<path d="M304.724 140.446L278.014 85.4972L284.627 82.2828L308.505 131.406L331.886 120.041L334.718 125.866L304.724 140.446Z" fill="#592B00"/>
<path d="M392.21 106.06L365.761 49.0108L373.403 47.4997L385.549 75.0778L394.961 96.5045L395.132 96.4706L396.282 72.9554L398.133 42.6096L406.377 40.9795L419.381 68.3879L429.377 89.6099L429.634 89.5589L430.372 66.2145L431.45 36.0215L438.835 34.5613L435.316 97.5364L427.33 99.1155L413.608 70.7786L403.765 49.8831L403.594 49.9171L402.273 73.0199L400.196 104.481L392.21 106.06Z" fill="#592B00"/>
<path d="M470.21 94.3001L469.789 33.2052L507.077 32.9483L507.121 39.4254L477.186 39.6317L477.328 60.1133L505.512 59.9191L505.556 66.3962L477.372 66.5904L477.518 87.7723L507.453 87.5661L507.497 94.0432L470.21 94.3001Z" fill="#592B00"/>
<path d="M532.089 96.0094L540.62 35.5117L547.901 36.5385L540.274 90.6224L566.016 94.2526L565.111 100.666L532.089 96.0094Z" fill="#592B00"/>
<path d="M585.931 105.301L602.962 46.6259L637.931 56.7762L636.126 62.9967L608.217 54.896L602.508 74.5663L627.978 81.9594L626.173 88.1799L600.702 80.7868L592.992 107.35L585.931 105.301Z" fill="#592B00"/>
<path d="M676.048 139.427L678.16 120.501L655.813 110.017L642.608 123.738L635.872 120.578L681.157 74.3382L689.636 78.3162L683.021 142.699L676.048 139.427ZM682.536 82.5267L682.14 82.3408L660.149 104.896L679.247 113.856L682.536 82.5267Z" fill="#592B00"/>
<path d="M705.909 157.099L699.857 152.923L734.558 102.638L754.586 116.458C759.004 119.508 761.593 123.102 762.352 127.242C763.159 131.415 761.972 135.806 758.79 140.417C756.238 144.115 753.269 146.568 749.883 147.777C746.578 148.97 743.003 148.807 739.159 147.289L735.374 177.432L728.53 172.709L732.566 143.59L720.823 135.486L705.909 157.099ZM738.379 139.944C740.78 141.601 743.06 142.253 745.218 141.899C747.425 141.578 749.324 140.265 750.915 137.96L753.5 134.214C755.091 131.908 755.644 129.667 755.161 127.491C754.726 125.347 753.308 123.447 750.907 121.789L736.931 112.145L724.403 130.299L738.379 139.944Z" fill="#592B00"/>
<path d="M752.54 191.941L794.843 147.859L821.747 173.678L817.262 178.351L795.663 157.624L781.481 172.402L801.817 191.917L797.332 196.591L776.997 177.075L762.33 192.359L783.929 213.086L779.444 217.76L752.54 191.941Z" fill="#592B00"/>
<path d="M814.67 260.809L865.898 227.516L885.74 258.047L880.309 261.577L864.473 237.21L847.299 248.372L861.752 270.61L856.321 274.139L841.868 251.902L818.676 266.974L814.67 260.809Z" fill="#592B00"/>
<path d="M853.344 331.883C851.759 328.245 850.94 324.687 850.889 321.208C850.914 317.76 851.675 314.468 853.174 311.333C854.749 308.228 857.083 305.333 860.178 302.648C863.326 299.939 867.254 297.559 871.962 295.508C876.669 293.456 881.06 292.211 885.134 291.773C889.207 291.335 892.917 291.596 896.264 292.556C899.634 293.57 902.564 295.253 905.053 297.606C907.619 299.989 909.694 302.999 911.279 306.637C912.841 310.221 913.621 313.764 913.62 317.265C913.671 320.744 912.91 324.036 911.335 327.141C909.783 330.299 907.46 333.221 904.365 335.907C901.271 338.592 897.37 340.96 892.662 343.011C887.954 345.063 883.537 346.319 879.41 346.781C875.336 347.22 871.614 346.932 868.244 345.918C864.951 344.934 862.022 343.251 859.456 340.868C856.943 338.462 854.906 335.467 853.344 331.883ZM859.362 329.26C860.411 331.667 861.807 333.701 863.548 335.361C865.29 337.021 867.278 338.223 869.512 338.968C871.77 339.767 874.197 340.078 876.794 339.901C879.39 339.724 882.079 339.03 884.861 337.818L894.169 333.762C896.951 332.549 899.29 331.053 901.187 329.271C903.084 327.49 904.509 325.5 905.461 323.303C906.437 321.159 906.91 318.885 906.88 316.479C906.85 314.073 906.31 311.666 905.261 309.259C904.212 306.852 902.817 304.818 901.075 303.158C899.333 301.499 897.334 300.269 895.076 299.471C892.842 298.726 890.427 298.442 887.83 298.618C885.234 298.795 882.544 299.489 879.763 300.701L870.455 304.758C867.673 305.97 865.333 307.467 863.436 309.248C861.539 311.03 860.103 312.992 859.127 315.136C858.175 317.333 857.714 319.635 857.744 322.04C857.774 324.446 858.313 326.853 859.362 329.26Z" fill="#592B00"/>
<path d="M933.079 370.944L896.277 379.631C890.598 380.972 886.53 383.041 884.073 385.84C881.672 388.625 881.095 392.658 882.342 397.94C883.589 403.222 885.908 406.571 889.301 407.989C892.75 409.393 897.314 409.425 902.994 408.084L939.795 399.397L941.485 406.553L906.387 414.838C902.07 415.857 898.228 416.344 894.86 416.3C891.505 416.312 888.576 415.715 886.073 414.507C883.569 413.299 881.478 411.424 879.799 408.883C878.133 406.398 876.831 403.168 875.893 399.192C874.954 395.217 874.674 391.745 875.053 388.778C875.445 385.868 876.498 383.341 878.21 381.198C879.923 379.055 882.282 377.239 885.288 375.75C888.308 374.317 891.976 373.092 896.292 372.073L931.39 363.788L933.079 370.944Z" fill="#592B00"/>
<path d="M923.879 458.902L937.04 450.845L937.027 450.583L886.242 453.26L885.864 446.092L946.876 442.876L947.322 451.355L911.261 475.607L898.1 483.664L898.113 483.926L948.898 481.249L949.276 488.417L888.264 491.632L887.817 483.154L923.879 458.902Z" fill="#592B00"/>
<path d="M947.864 526.644L945.28 546.962C944.801 550.725 943.73 554.059 942.067 556.965C940.403 559.871 938.161 562.233 935.342 564.051C932.573 565.935 929.205 567.212 925.237 567.884C921.327 568.563 916.854 568.583 911.818 567.942C906.781 567.302 902.427 566.16 898.753 564.516C895.138 562.88 892.196 560.8 889.929 558.277C887.712 555.818 886.162 552.974 885.279 549.744C884.395 546.514 884.193 543.018 884.672 539.255L887.255 518.936L947.864 526.644ZM891.097 540.072C890.78 542.561 890.895 544.899 891.44 547.086C892.044 549.281 893.06 551.233 894.49 552.945C895.919 554.656 897.74 556.064 899.952 557.169C902.215 558.339 904.852 559.115 907.862 559.498L917.761 560.757C920.771 561.14 923.489 561.044 925.915 560.47C928.391 559.962 930.536 559.058 932.348 557.759C934.16 556.46 935.604 554.82 936.679 552.839C937.813 550.866 938.538 548.634 938.854 546.145L940.511 533.12L892.753 527.047L891.097 540.072Z" fill="#592B00"/>
<path d="M865.057 623.842L884.091 623.25L891.302 599.643L875.847 588.516L878.02 581.4L930.213 619.673L927.477 628.631L862.807 631.209L865.057 623.842ZM922.302 622.199L922.43 621.781L896.985 603.209L890.823 623.384L922.302 622.199Z" fill="#592B00"/>
<path d="M894.983 691.742L845.919 667.743L849.15 661.138L898.214 685.137L906.752 667.682L912.571 670.528L892.264 712.044L886.445 709.198L894.983 691.742Z" fill="#592B00"/>
<path d="M828.23 699.828L833.328 703.227L828.569 710.364L869.204 737.462L873.963 730.325L879.061 733.724L865.464 754.115L860.366 750.716L865.125 743.579L824.489 716.481L819.73 723.618L814.633 720.218L828.23 699.828Z" fill="#592B00"/>
<path d="M784.464 755.869C787.132 752.932 790.042 750.727 793.194 749.253C796.349 747.862 799.664 747.208 803.137 747.289C806.615 747.452 810.213 748.395 813.931 750.116C817.692 751.877 821.473 754.484 825.275 757.937C829.076 761.39 832.011 764.884 834.081 768.42C836.151 771.956 837.434 775.447 837.93 778.893C838.387 782.382 838.053 785.744 836.927 788.979C835.806 792.297 833.911 795.424 831.243 798.361C828.615 801.255 825.703 803.419 822.508 804.853C819.357 806.326 816.042 806.981 812.564 806.818C809.047 806.698 805.43 805.777 801.712 804.055C797.994 802.333 794.234 799.746 790.433 796.293C786.632 792.84 783.675 789.327 781.562 785.751C779.492 782.216 778.228 778.703 777.772 775.214C777.319 771.807 777.653 768.444 778.774 765.127C779.939 761.849 781.836 758.763 784.464 755.869ZM789.324 760.283C787.558 762.227 786.275 764.333 785.476 766.602C784.676 768.871 784.394 771.178 784.63 773.521C784.828 775.907 785.539 778.249 786.765 780.544C787.99 782.84 789.726 785.008 791.972 787.048L799.488 793.875C801.734 795.916 804.058 797.436 806.461 798.436C808.864 799.436 811.262 799.92 813.657 799.887C816.012 799.898 818.281 799.397 820.463 798.383C822.645 797.37 824.619 795.891 826.384 793.947C828.15 792.003 829.432 789.897 830.232 787.628C831.032 785.359 831.333 783.031 831.136 780.644C830.9 778.301 830.169 775.982 828.943 773.686C827.718 771.39 825.982 769.222 823.736 767.182L816.22 760.355C813.974 758.314 811.649 756.794 809.247 755.794C806.844 754.794 804.465 754.289 802.11 754.278C799.715 754.31 797.427 754.833 795.245 755.847C793.063 756.861 791.089 758.339 789.324 760.283Z" fill="#592B00"/>
<path d="M760.672 830.645L774.733 837.001L774.943 836.842L744.18 796.346L749.895 792.005L786.853 840.656L780.092 845.791L739.763 829.601L725.701 823.245L725.492 823.404L756.254 863.9L750.539 868.241L713.582 819.59L720.342 814.454L760.672 830.645Z" fill="#592B00"/>
</svg>
